<svg xmlns="http://www.w3.org/2000/svg" viewBox="125 155 750 396" role="img" aria-labelledby="compact-title compact-desc">
  <title id="compact-title">AntiSoon compact logo</title>
  <desc id="compact-desc">AntiSoon redesigned icon with wordmark below.</desc>
  <defs>
    <linearGradient id="textGrad" x1="0%" y1="0%" x2="100%" y2="100%">
      <stop offset="0%" stop-color="#3b82f6"/>
      <stop offset="100%" stop-color="#7c3aed"/>
    </linearGradient>
    <linearGradient id="loopGrad" x1="0%" y1="0%" x2="100%" y2="100%">
      <stop offset="0%" stop-color="#f59e0b"/>
      <stop offset="100%" stop-color="#f97316"/>
    </linearGradient>
  </defs>

  <g transform="translate(276, 175) scale(0.7)" fill="url(#loopGrad)">
    <path d="M225.36,288.59c-41.03,25.87-94.49,28.31-138.28,7.53C24.48,267.13-10.49,196.73,2.8,129.19,12.18,77.49,48.75,32.7,97.27,12.62c69.72-29.86,153.31-5.14,196.44,57.13,0,0,3.81,5.61,3.81,5.61,0,0,6.54,10.65,6.54,10.65,0,0,6.14,9.9,6.14,9.9,1.69,2.91,4.57,6.96,5.94,10.01,1.7,3.75,2.12,7.96,2.22,12.17.09,4.37.38,8.7.78,13.04.67,8.61,1.11,17.38.67,26.69,0,0-.86.51-.86.51-8.37-4.11-15.86-8.78-23.11-13.6-5.27-3.82-11.34-6.88-16.53-10.76-3.29-2.52-5.45-5.78-7.32-9.34,0,0-2.88-5.12-2.88-5.12-1.88-3.38-6.74-11.97-8.54-15.22,0,0-2.5-4.55-2.5-4.55-.92-1.45-2.95-4.89-3.93-6.23-33.78-51.13-102.89-68.62-157.56-40.74C50.41,75.53,22.32,126.06,26.45,177.32c4.79,68.79,62.89,122.33,131.44,124.53,15.25.52,30.63-1.42,45.32-5.79,7.38-2.23,14.62-5.03,21.67-8.35,0,0,.48.88.48.88h0Z"/>
    <path d="M413.4,27.18c41.03-25.87,94.49-28.31,138.28-7.53,62.59,28.98,97.57,99.39,84.27,166.93-9.38,51.7-45.94,96.48-94.47,116.57-69.72,29.86-153.31,5.14-196.44-57.13,0,0-3.81-5.61-3.81-5.61,0,0-6.54-10.65-6.54-10.65,0,0-6.14-9.9-6.14-9.9-1.69-2.91-4.57-6.96-5.94-10.01-1.7-3.75-2.12-7.96-2.22-12.17-.09-4.37-.38-8.7-.78-13.04-.67-8.61-1.11-17.38-.67-26.69l.86-.51c8.37,4.11,15.86,8.78,23.11,13.6,5.27,3.82,11.34,6.88,16.53,10.76,3.29,2.52,5.45,5.78,7.32,9.34,0,0,2.88,5.12,2.88,5.12,1.88,3.38,6.74,11.97,8.54,15.22,0,0,2.5,4.55,2.5,4.55.92,1.45,2.95,4.89,3.93,6.23,33.78,51.13,102.89,68.62,157.56,40.74,46.18-22.75,74.27-73.29,70.13-124.55-4.79-68.79-62.89-122.33-131.44-124.53-15.25-.52-30.63,1.42-45.32,5.79-7.38,2.23-14.62,5.03-21.67,8.35l-.48-.88h0Z"/>
  </g>

  <g transform="translate(0, 351)">
    <text x="500" y="180" font-family="'JetBrains Mono', 'Segoe UI', monospace" font-weight="700" font-size="120" letter-spacing="6" fill="url(#textGrad)" text-anchor="middle">AntiSOON</text>
  </g>
</svg>
